<svg width="26" height="18" viewBox="0 0 26 18" fill="none" xmlns="http://www.w3.org/2000/svg">
<path d="M25.157 2.86064L23.9787 2.17556C23.8939 2.12638 23.7979 2.12245 23.7121 2.15112C23.6807 2.14107 23.649 2.13137 23.6142 2.13137H22.18C22.1675 0.913955 21.6135 0 20.8786 0C20.1434 0 19.5894 0.913896 19.5769 2.13137H17.2856C17.2731 0.913955 16.7191 0 15.9842 0C15.249 0 14.6949 0.913896 14.6825 2.13137H12.3912C12.3787 0.913955 11.8247 0 11.0898 0C10.3546 0 9.80054 0.913896 9.78804 2.13137H7.49679C7.4843 0.913955 6.93026 0 6.19539 0C5.46017 0 4.90613 0.913896 4.89363 2.13137H3.45983C3.27979 2.13137 3.13359 2.27757 3.13359 2.45761V5.10746C3.11842 5.27531 2.60565 10.6944 0.0530529 14.5953C-0.0122551 14.6957 -0.017846 14.824 0.0394918 14.9295C0.0964727 15.0351 0.20639 15.1004 0.3263 15.1004H0.326716L1.75463 15.0983V15.8269C1.75463 15.8487 1.76296 15.8679 1.76706 15.8886C1.76968 15.9019 1.77057 15.9138 1.77479 15.9266C1.79299 15.9822 1.82357 16.0304 1.86633 16.0683C1.86954 16.0712 1.86966 16.0758 1.87293 16.0786L3.45264 17.3822C3.51081 17.4304 3.5845 17.4567 3.66016 17.4567H24.9928C25.1729 17.4567 25.3191 17.3105 25.3191 17.1304V3.14269C25.3191 3.02635 25.2574 2.91882 25.157 2.86064ZM20.8787 0.652426C21.1403 0.652426 21.5164 1.22806 21.5279 2.13137H20.2292C20.2407 1.22812 20.6172 0.652426 20.8787 0.652426ZM15.9843 0.652426C16.2459 0.652426 16.622 1.22806 16.6335 2.13137H15.3348C15.3462 1.22812 15.7227 0.652426 15.9843 0.652426ZM11.0899 0.652426C11.3515 0.652426 11.7275 1.22806 11.739 2.13137H10.4404C10.4518 1.22812 10.8283 0.652426 11.0899 0.652426ZM6.19545 0.652426C6.45704 0.652426 6.83307 1.22806 6.84461 2.13137H5.54588C5.55742 1.22812 5.93386 0.652426 6.19545 0.652426ZM3.78608 2.7838H4.94598C5.09783 3.70275 5.58145 4.34399 6.19545 4.34399C6.3755 4.34399 6.52169 4.19779 6.52169 4.01775C6.52169 3.83771 6.3755 3.69151 6.19545 3.69151C5.99429 3.69151 5.72497 3.35123 5.6056 2.78374H9.84045C9.9923 3.70269 10.4759 4.34393 11.0899 4.34393C11.27 4.34393 11.4162 4.19773 11.4162 4.01769C11.4162 3.83765 11.27 3.69145 11.0899 3.69145C10.8888 3.69145 10.6194 3.35117 10.5001 2.78368H14.7349C14.8868 3.70263 15.3704 4.34387 15.9844 4.34387C16.1644 4.34387 16.3106 4.19767 16.3106 4.01763C16.3106 3.83759 16.1644 3.69139 15.9844 3.69139C15.7832 3.69139 15.5139 3.35111 15.3945 2.78362H19.6294C19.7812 3.70257 20.2649 4.34381 20.8789 4.34381C21.0589 4.34381 21.2051 4.19761 21.2051 4.01757C21.2051 3.83753 21.0589 3.69133 20.8789 3.69133C20.6777 3.69133 20.4084 3.35105 20.289 2.78356H23.2882V4.79663H3.78608V2.7838ZM3.75443 5.44929H23.2347L22.9638 7.23295C22.7488 9.31174 21.6905 11.1045 21.6813 11.1197C20.7365 12.6667 18.0451 11.6351 18.018 11.6251C17.8822 11.5713 17.7265 11.616 17.6389 11.7322C17.3667 12.0916 17.0758 12.3997 16.7772 12.6697C16.7187 12.5826 16.624 12.5217 16.5112 12.5217H14.861C14.681 12.5217 14.5348 12.6679 14.5348 12.8479V13.9011C14.5348 13.9391 14.5444 13.9744 14.5564 14.0083C13.4471 14.4183 12.5797 14.4304 12.5588 14.4304L0.915439 14.4471C3.01118 10.9328 3.62197 6.62079 3.75443 5.44929ZM15.5024 13.5777C15.4973 13.5775 15.4931 13.5748 15.488 13.5748H15.1873V13.1741H16.1443C15.9297 13.3253 15.7152 13.4608 15.5024 13.5777ZM12.5573 15.0828C12.6995 15.0796 15.7916 15.0689 18.0117 12.3145C18.7761 12.5635 21.189 13.1781 22.2398 11.4574C22.2691 11.4083 22.7139 10.655 23.0968 9.55299L23.1069 15.5007H2.40711V15.0974L12.5573 15.0828ZM24.6667 16.8043H3.77733L2.9887 16.1531H23.434C23.5208 16.1531 23.6037 16.1188 23.665 16.0575C23.7259 15.9962 23.7606 15.9129 23.7602 15.8265L23.7439 6.44259L23.937 5.17206C23.9383 5.16337 23.9352 5.15546 23.9358 5.14684C23.9364 5.13857 23.9406 5.13143 23.9406 5.12305V2.90817L24.6667 3.33029V16.8043H24.6667Z" fill="black"/>
<path d="M5.54737 8.11876H7.19756C7.3776 8.11876 7.5238 7.97256 7.5238 7.79252V6.7398C7.5238 6.55976 7.3776 6.41356 7.19756 6.41356H5.54737C5.36733 6.41356 5.22113 6.55976 5.22113 6.7398V7.79252C5.22119 7.97256 5.36739 8.11876 5.54737 8.11876ZM5.87362 7.06604H6.87138V7.46634H5.87362V7.06604Z" fill="black"/>
<path d="M10.1618 8.11876H11.8116C11.9916 8.11876 12.1378 7.97256 12.1378 7.79252V6.7398C12.1378 6.55976 11.9916 6.41356 11.8116 6.41356H10.1618C9.98177 6.41356 9.83557 6.55976 9.83557 6.7398V7.79252C9.83557 7.97256 9.98177 8.11876 10.1618 8.11876ZM10.4881 7.06604H11.4854V7.46634H10.4881V7.06604Z" fill="black"/>
<path d="M14.7758 8.11876H16.426C16.6061 8.11876 16.7523 7.97256 16.7523 7.79252V6.7398C16.7523 6.55976 16.6061 6.41356 16.426 6.41356H14.7758C14.5958 6.41356 14.4496 6.55976 14.4496 6.7398V7.79252C14.4496 7.97256 14.5958 8.11876 14.7758 8.11876ZM15.102 7.06604H16.0998V7.46634H15.102V7.06604Z" fill="black"/>
<path d="M19.3903 8.11876H21.04C21.2201 8.11876 21.3663 7.97256 21.3663 7.79252V6.7398C21.3663 6.55976 21.2201 6.41356 21.04 6.41356H19.3903C19.2102 6.41356 19.064 6.55976 19.064 6.7398V7.79252C19.0641 7.97256 19.2103 8.11876 19.3903 8.11876ZM19.7165 7.06604H20.7139V7.46634H19.7165V7.06604Z" fill="black"/>
<path d="M5.5904 11.173H7.24017C7.42022 11.173 7.56642 11.0268 7.56642 10.8468V9.79406C7.56642 9.61402 7.42022 9.46782 7.24017 9.46782H5.5904C5.41036 9.46782 5.26416 9.61402 5.26416 9.79406V10.8468C5.26416 11.0268 5.41036 11.173 5.5904 11.173ZM5.91659 10.1202H6.91393V10.5205H5.91659V10.1202Z" fill="black"/>
<path d="M10.2045 11.173H11.8547C12.0347 11.173 12.1809 11.0268 12.1809 10.8468V9.79406C12.1809 9.61402 12.0347 9.46782 11.8547 9.46782H10.2045C10.0244 9.46782 9.87823 9.61402 9.87823 9.79406V10.8468C9.87823 11.0268 10.0244 11.173 10.2045 11.173ZM10.5307 10.1202H11.5284V10.5205H10.5307V10.1202Z" fill="black"/>
<path d="M16.4687 9.46782H14.8185C14.6384 9.46782 14.4922 9.61402 14.4922 9.79406V10.8468C14.4922 11.0268 14.6384 11.173 14.8185 11.173H16.4687C16.6487 11.173 16.7949 11.0268 16.7949 10.8468V9.79406C16.7949 9.61402 16.6487 9.46782 16.4687 9.46782ZM16.1424 10.5206H15.1447V10.1203H16.1424V10.5206Z" fill="black"/>
<path d="M21.0827 9.46782H19.4329C19.2529 9.46782 19.1067 9.61402 19.1067 9.79406V10.8468C19.1067 11.0268 19.2529 11.173 19.4329 11.173H21.0827C21.2627 11.173 21.4089 11.0268 21.4089 10.8468V9.79406C21.4089 9.61402 21.2627 9.46782 21.0827 9.46782ZM20.7565 10.5206H19.7591V10.1203H20.7565V10.5206Z" fill="black"/>
<path d="M7.28284 12.5216H5.63307C5.45302 12.5216 5.30682 12.6678 5.30682 12.8479V13.901C5.30682 14.0811 5.45302 14.2273 5.63307 14.2273H7.28284C7.46288 14.2273 7.60908 14.0811 7.60908 13.901V12.8479C7.60902 12.6678 7.46288 12.5216 7.28284 12.5216ZM6.95659 13.5748H5.95925V13.1741H6.95659V13.5748Z" fill="black"/>
<path d="M11.8972 12.5216H10.247C10.067 12.5216 9.92078 12.6678 9.92078 12.8479V13.901C9.92078 14.0811 10.067 14.2273 10.247 14.2273H11.8972C12.0772 14.2273 12.2234 14.0811 12.2234 13.901V12.8479C12.2234 12.6678 12.0772 12.5216 11.8972 12.5216ZM11.571 13.5748H10.5733V13.1741H11.571V13.5748Z" fill="black"/>
</svg>
