<svg width="19" height="27" viewBox="0 0 19 27" fill="none" xmlns="http://www.w3.org/2000/svg">
<path d="M9.50055 20.9773H13.8852C14.4836 20.9773 15.0336 20.86 15.5254 20.631C16.0154 20.4029 16.458 20.0574 16.838 19.602C17.2189 19.1458 17.4789 18.6507 17.6139 18.1309C17.7498 17.6077 17.7648 17.0482 17.6539 16.4671L17.5306 15.8233H1.46886L1.34551 16.4671C1.23467 17.049 1.24884 17.6077 1.38552 18.1309C1.52053 18.6507 1.78056 19.1458 2.16143 19.602C2.54231 20.0574 2.98402 20.4029 3.47407 20.631C3.96496 20.86 4.51585 20.9773 5.11425 20.9773H9.49888H9.50055ZM17.2897 14.5579L15.3437 4.35977C15.1712 3.4531 14.6936 2.6795 14.0285 2.13236C13.3635 1.58605 12.5075 1.26619 11.5749 1.26619H7.4245C6.4919 1.26619 5.63597 1.58605 4.9709 2.13236C4.305 2.6795 3.82828 3.4531 3.65576 4.35977L1.70972 14.5579H17.2889H17.2897ZM18.6749 15.0282C18.6824 15.0571 18.6882 15.0869 18.6915 15.1175L18.9049 16.2349C19.0499 16.9961 19.0282 17.7383 18.8457 18.4425C18.6615 19.1508 18.3182 19.812 17.8198 20.4079C17.3214 21.0046 16.7305 21.4625 16.0629 21.7732C15.3962 22.084 14.6644 22.2435 13.8852 22.2435H5.11508C4.335 22.2435 3.60325 22.084 2.93735 21.7732C2.27061 21.4625 1.67971 21.0046 1.18049 20.4079C0.682941 19.812 0.339571 19.1508 0.154551 18.4425C-0.0288015 17.7374 -0.049637 16.9961 0.0953786 16.2349L0.308735 15.1175C0.312069 15.0869 0.317903 15.0571 0.325403 15.0282L2.40479 4.12753C2.63482 2.92001 3.27072 1.88855 4.15831 1.15792C5.04758 0.428125 6.18686 0 7.4245 0H11.5749C12.8126 0 13.9519 0.428125 14.8411 1.15792C15.7287 1.88772 16.3646 2.91919 16.5946 4.12753L18.674 15.0282H18.6749ZM6.29688 25.1644C6.12102 24.8627 6.22437 24.4759 6.52857 24.3015C6.83277 24.1271 7.22197 24.2296 7.39866 24.5313C7.61285 24.899 7.92038 25.2049 8.28792 25.4148L8.28959 25.4164L8.29042 25.4148C8.64379 25.6173 9.05717 25.733 9.49972 25.733C9.94227 25.733 10.3556 25.6173 10.709 25.4148L10.7407 25.3983C11.0949 25.1883 11.3916 24.89 11.6008 24.5321C11.7766 24.2304 12.1667 24.1271 12.4709 24.3023C12.7751 24.4767 12.8792 24.8635 12.7026 25.1652C12.3859 25.7082 11.9308 26.1636 11.3841 26.4859L11.3474 26.5091C10.8015 26.8215 10.1698 27 9.49972 27C8.82965 27 8.19791 26.8207 7.65202 26.5091L7.65285 26.5082C7.08946 26.1851 6.62024 25.7214 6.29688 25.166V25.1644Z" fill="black"/>
</svg>
