<svg width="21" height="20" viewBox="0 0 21 20" fill="none" xmlns="http://www.w3.org/2000/svg">
<path d="M19.948 6.41129L17.9022 4.90854V4.66259C17.9016 4.17357 17.701 3.70476 17.3446 3.35897C16.9882 3.01318 16.505 2.81862 16.001 2.81797H15.063L11.8005 0.422427C11.4258 0.148287 10.9693 0 10.5 0C10.0307 0 9.57422 0.148287 9.19954 0.422427L5.93699 2.82781H4.99903C4.495 2.82846 4.01179 3.02302 3.65538 3.36881C3.29898 3.7146 3.09845 4.18341 3.09778 4.67243V4.91838L1.05203 6.42113C0.725954 6.66324 0.461529 6.97476 0.279132 7.33167C0.096736 7.68858 0.00123848 8.08136 0 8.47973V17.4175C0.000671171 18.1022 0.281321 18.7587 0.780352 19.2429C1.27938 19.7271 1.95602 19.9993 2.66176 20H18.3382C19.044 19.9993 19.7206 19.7271 20.2196 19.2429C20.7187 18.7587 20.9993 18.1022 21 17.4175V8.46989C20.9988 8.07152 20.9033 7.67874 20.7209 7.32183C20.5385 6.96492 20.274 6.6534 19.948 6.41129ZM19.1875 7.39509C19.2625 7.45113 19.3313 7.5146 19.3928 7.58447L17.9022 8.61254V6.45065L19.1875 7.39509ZM9.96511 1.40377C10.1188 1.29007 10.3067 1.22849 10.5 1.22849C10.6933 1.22849 10.8812 1.29007 11.0349 1.40377L12.9742 2.82781H8.02583L9.96511 1.40377ZM4.99903 4.05756H16.001C16.169 4.05756 16.3302 4.12234 16.4491 4.23765C16.5679 4.35296 16.6347 4.50936 16.6347 4.67243V9.49304L11.3112 13.1823C11.0746 13.3465 10.7909 13.4348 10.5 13.4348C10.2091 13.4348 9.92542 13.3465 9.6888 13.1823L4.36528 9.49304V4.67243C4.36528 4.50936 4.43205 4.35296 4.5509 4.23765C4.66976 4.12234 4.83095 4.05756 4.99903 4.05756ZM1.8176 7.39263L3.09778 6.45065V8.61254L1.61226 7.58201C1.67375 7.51214 1.74256 7.44867 1.8176 7.39263ZM18.3382 18.7703H2.66176C2.29198 18.7703 1.93734 18.6277 1.67587 18.374C1.4144 18.1204 1.2675 17.7763 1.2675 17.4175V8.85603L8.95111 14.1808C9.40289 14.4945 9.94448 14.6631 10.5 14.6631C11.0555 14.6631 11.5971 14.4945 12.0489 14.1808L19.7325 8.85603V17.4175C19.7325 17.7763 19.5856 18.1204 19.3241 18.374C19.0627 18.6277 18.708 18.7703 18.3382 18.7703Z" fill="black"/>
</svg>
