<svg width="23" height="29" viewBox="0 0 23 29" fill="none" xmlns="http://www.w3.org/2000/svg">
<path d="M9.50055 22.9773H13.8852C14.4836 22.9773 15.0336 22.86 15.5254 22.631C16.0154 22.4029 16.458 22.0574 16.838 21.602C17.2189 21.1458 17.4789 20.6507 17.6139 20.1309C17.7498 19.6077 17.7648 19.0482 17.6539 18.4671L17.5306 17.8233H1.46886L1.34551 18.4671C1.23467 19.049 1.24884 19.6077 1.38552 20.1309C1.52053 20.6507 1.78056 21.1458 2.16143 21.602C2.54231 22.0574 2.98402 22.4029 3.47407 22.631C3.96496 22.86 4.51585 22.9773 5.11425 22.9773H9.49888H9.50055ZM17.2897 16.5579L15.3437 6.35977C15.1712 5.4531 14.6936 4.6795 14.0285 4.13236C13.3635 3.58605 12.5075 3.26619 11.5749 3.26619H7.4245C6.4919 3.26619 5.63597 3.58605 4.9709 4.13236C4.305 4.6795 3.82828 5.4531 3.65576 6.35977L1.70972 16.5579H17.2889H17.2897ZM18.6749 17.0282C18.6824 17.0571 18.6882 17.0869 18.6915 17.1175L18.9049 18.2349C19.0499 18.9961 19.0282 19.7383 18.8457 20.4425C18.6615 21.1508 18.3182 21.812 17.8198 22.4079C17.3214 23.0046 16.7305 23.4625 16.0629 23.7732C15.3962 24.084 14.6644 24.2435 13.8852 24.2435H5.11508C4.335 24.2435 3.60325 24.084 2.93735 23.7732C2.27061 23.4625 1.67971 23.0046 1.18049 22.4079C0.682941 21.812 0.339571 21.1508 0.154551 20.4425C-0.0288015 19.7374 -0.049637 18.9961 0.0953786 18.2349L0.308735 17.1175C0.312069 17.0869 0.317903 17.0571 0.325403 17.0282L2.40479 6.12753C2.63482 4.92001 3.27072 3.88855 4.15831 3.15792C5.04758 2.42813 6.18686 2 7.4245 2H11.5749C12.8126 2 13.9519 2.42813 14.8411 3.15792C15.7287 3.88772 16.3646 4.91919 16.5946 6.12753L18.674 17.0282H18.6749ZM6.29688 27.1644C6.12102 26.8627 6.22437 26.4759 6.52857 26.3015C6.83277 26.1271 7.22197 26.2296 7.39866 26.5313C7.61285 26.899 7.92038 27.2049 8.28792 27.4148L8.28959 27.4164L8.29042 27.4148C8.64379 27.6173 9.05717 27.733 9.49972 27.733C9.94227 27.733 10.3556 27.6173 10.709 27.4148L10.7407 27.3983C11.0949 27.1883 11.3916 26.89 11.6008 26.5321C11.7766 26.2304 12.1667 26.1271 12.4709 26.3023C12.7751 26.4767 12.8792 26.8635 12.7026 27.1652C12.3859 27.7082 11.9308 28.1636 11.3841 28.4859L11.3474 28.5091C10.8015 28.8215 10.1698 29 9.49972 29C8.82965 29 8.19791 28.8207 7.65202 28.5091L7.65285 28.5082C7.08946 28.1851 6.62024 27.7214 6.29688 27.166V27.1644Z" fill="black"/>
<circle cx="17" cy="6" r="5" fill="#F24822" stroke="white" stroke-width="2"/>
</svg>
